<svg width="100" height="99" viewBox="0 0 100 99" fill="none" xmlns="http://www.w3.org/2000/svg">
<path d="M0.196777 75.497C0.832763 75.3468 1.83878 75.2429 2.85635 75.2429C4.31334 75.2429 5.24997 75.52 5.95533 76.1322C6.54507 76.6057 6.89197 77.3333 6.89197 78.3034C6.89197 79.4814 6.17504 80.5208 4.98401 80.9944V81.029C6.0594 81.3177 7.30825 82.2879 7.30825 84.1011C7.30825 85.1521 6.92666 85.9605 6.34849 86.561C5.56218 87.3464 4.29021 87.7044 2.45163 87.7044C1.44562 87.7044 0.682439 87.6351 0.196777 87.5543V75.497ZM1.65376 80.5208H2.97199C4.50991 80.5208 5.41186 79.6431 5.41186 78.4651C5.41186 77.0214 4.40584 76.4671 2.9373 76.4671C2.26662 76.4671 1.88503 76.5248 1.65376 76.571V80.5208ZM1.65376 86.3994C1.94285 86.4571 2.35913 86.4687 2.87948 86.4687C4.38272 86.4687 5.77032 85.8681 5.77032 84.0895C5.77032 82.4149 4.4521 81.722 2.85635 81.722H1.65376V86.3994Z" fill="#006838"/>
<path d="M14.4426 83.7431L13.2747 87.6005H11.7715L15.599 75.3353H17.3566L21.2072 87.6005H19.6461L18.4435 83.7431H14.4426ZM18.1429 82.5073L17.0328 78.9732C16.7784 78.1764 16.6165 77.4488 16.4431 76.7327H16.42C16.2581 77.4603 16.0731 78.211 15.8534 78.9502L14.7433 82.4958H18.1429V82.5073ZM18.9408 72.5404L16.8131 74.6654H15.6105L17.1716 72.5404H18.9408Z" fill="#006838"/>
<path d="M33.846 87.1963C33.314 87.485 32.2386 87.7737 30.8626 87.7737C27.6827 87.7737 25.2891 85.5909 25.2891 81.5718C25.2891 77.7259 27.6827 75.1274 31.1864 75.1274C32.5971 75.1274 33.4759 75.4508 33.8691 75.6702L33.5222 76.9637C32.9671 76.675 32.1808 76.4555 31.2442 76.4555C28.5962 76.4555 26.8386 78.2919 26.8386 81.5141C26.8386 84.5169 28.4343 86.4456 31.1748 86.4456C32.0652 86.4456 32.9671 86.2492 33.5569 85.9374L33.846 87.1963Z" fill="#006838"/>
<path d="M40.4721 75.3353V80.4631H45.93V75.3353H47.3986V87.6005H45.93V81.849H40.4721V87.6005H39.0151V75.3353H40.4721Z" fill="#006838"/>
<path d="M69.6812 82.207C69.6003 80.4977 69.4962 78.442 69.5193 76.9059H69.4731C69.0915 78.3496 68.6174 79.8741 68.0508 81.5603L66.0619 87.5081H64.9518L63.1248 81.6642C62.5929 79.9318 62.1419 78.3496 61.8181 76.8944H61.7834C61.7488 78.4189 61.6678 80.4746 61.5637 82.3225L61.2631 87.5774H59.8755L60.6618 75.3121H62.5235L64.443 81.2484C64.9171 82.7614 65.2987 84.1011 65.5762 85.383H65.6225C65.9116 84.1473 66.3047 82.796 66.8135 81.2484L68.8255 75.3121H70.6872L71.3926 87.5774H69.9587L69.6812 82.207Z" fill="#006838"/>
<path d="M86.6212 81.3408C86.6212 85.5678 84.2622 87.7968 81.383 87.7968C78.3996 87.7968 76.3066 85.2906 76.3066 81.5718C76.3066 77.6797 78.5384 75.1274 81.5448 75.1274C84.6323 75.1274 86.6212 77.6913 86.6212 81.3408ZM77.8677 81.5372C77.8677 84.1588 79.1744 86.5033 81.4639 86.5033C83.7766 86.5033 85.0832 84.1935 85.0832 81.4101C85.0832 78.9732 83.9153 76.4209 81.487 76.4209C79.0703 76.4209 77.8677 78.8462 77.8677 81.5372ZM82.0189 72.5404L83.7766 74.6192H82.5393L81.4639 73.3604H81.4292L80.377 74.6192H79.1744L80.8973 72.5404H82.0189ZM80.6429 89.9681C80.6429 89.4946 81.0129 89.0557 81.4986 89.0557C81.9496 89.0557 82.2965 89.4946 82.2965 89.9681C82.2965 90.4416 81.9496 90.892 81.4755 90.892C81.0129 90.892 80.6429 90.4416 80.6429 89.9681Z" fill="#006838"/>
<path d="M99.7459 87.1963C99.2139 87.485 98.1385 87.7737 96.7625 87.7737C93.5826 87.7737 91.189 85.5909 91.189 81.5718C91.189 77.7259 93.5826 75.1274 97.0863 75.1274C98.497 75.1274 99.3758 75.4508 99.769 75.6702L99.4221 76.9637C98.867 76.675 98.0807 76.4555 97.1441 76.4555C94.4961 76.4555 92.7385 78.2919 92.7385 81.5141C92.7385 84.5169 94.3342 86.4456 97.0747 86.4456C97.9651 86.4456 98.867 86.2492 99.4568 85.9374L99.7459 87.1963Z" fill="#006838"/>
<path d="M7.38884 40.3528C7.25008 40.1796 7.07663 40.0063 6.93787 39.8331C6.40596 39.1864 5.95499 38.5396 5.52714 37.8236C4.94897 36.7841 4.45175 35.7447 4.05859 34.636C5.37682 34.3588 6.68348 34.1971 8.09421 34.0123C10.2103 33.7813 12.153 33.585 14.2459 33.3771C16.9633 33.1577 19.4494 32.9383 22.1668 33.0653C22.2131 33.0653 22.2593 33.1115 22.294 33.1115C22.6294 33.1346 22.9531 33.1461 23.2885 33.1692C23.6238 33.227 23.9476 33.2501 24.2829 33.3078C24.6761 33.3887 25.0577 33.4118 25.4277 33.5157C25.5202 33.5619 25.6011 33.5966 25.7168 33.6197C26.1331 33.6774 26.4915 33.7698 26.8731 33.9199C27.2085 34.0701 27.5554 34.1047 27.8907 34.2549C28.1798 34.405 28.4689 34.5089 28.7579 34.6129C29.4055 34.8901 29.9837 35.2365 30.5965 35.5715C31.3019 35.9988 31.9032 36.4492 32.5507 36.9458C33.4874 37.7196 34.3084 38.5165 35.0715 39.4635C35.3144 39.7869 35.5456 40.0872 35.7885 40.4106C35.8347 40.4568 35.8116 40.5145 35.8579 40.5607C36.5517 41.4846 37.0489 42.4894 37.523 43.5057C35.6728 42.1545 33.6377 41.0804 31.4406 40.2951C31.2441 40.2258 31.0244 40.1449 30.8162 40.0872C29.3824 39.6483 27.9832 39.3711 26.4568 39.1864C25.659 39.1055 24.9073 39.0709 24.1095 39.0709C22.745 39.0824 21.4846 39.2441 20.0739 39.4751C19.9582 39.4982 19.8773 39.452 19.7616 39.4751C18.374 39.6368 17.1136 39.6714 15.7376 39.5097C15.6913 39.5097 15.622 39.5328 15.5873 39.5328C15.1016 39.4982 14.6853 39.4289 14.1997 39.348C13.8643 39.2903 13.5752 39.221 13.2746 39.1864C13.2052 39.1633 13.1821 39.1402 13.1243 39.1171C11.887 38.863 10.7769 38.5281 9.6437 38.0776C13.3209 39.7869 17.5068 40.4683 21.5424 39.9717C22.4675 39.9602 23.3694 39.8909 24.3292 39.9948C24.3754 39.9948 24.4448 39.9717 24.4795 39.9717C25.7168 40.0872 26.8037 40.2373 27.9948 40.5261C29.6715 40.9418 31.1863 41.5424 32.7126 42.2931C32.8051 42.3393 32.8861 42.4201 32.9786 42.4663C34.4703 43.217 35.7538 44.1641 37.0258 45.1688C36.6557 45.2843 36.3204 45.2612 35.9041 45.3305C35.5688 45.3998 35.2219 45.446 34.8634 45.446C34.5743 45.4691 34.3084 45.5153 34.0424 45.5615C31.6372 45.8156 29.4286 46.0119 27.0466 46.1621C25.0114 46.266 23.1382 46.393 21.1261 46.3468C21.0336 46.3468 20.9527 46.3006 20.8602 46.3006C19.01 46.2775 17.2755 45.9888 15.4832 45.5038C13.5174 44.9378 11.8061 44.0601 10.1409 42.8705C10.0947 42.8243 10.0484 42.7897 10.0022 42.7435C9.0424 42.0852 8.19828 41.2652 7.38884 40.3528Z" fill="#006838"/>
<path d="M36.2395 6.06332C36.0892 5.95938 35.9388 5.80924 35.7885 5.69375C35.2219 5.25488 34.6553 4.8853 34.0309 4.53883C33.1289 4.06531 32.2154 3.67264 31.2557 3.36081C31.036 4.46953 30.9203 5.56671 30.7816 6.74472C30.6081 8.52329 30.4694 10.1517 30.319 11.9072C30.1687 14.1824 30.0184 16.2728 30.1687 18.548C30.1687 18.5826 30.2034 18.6173 30.2034 18.6635C30.2265 18.9407 30.2497 19.2178 30.2728 19.495C30.3306 19.7722 30.3537 20.0494 30.4115 20.3266C30.4925 20.6615 30.5156 20.9733 30.6081 21.2851C30.6428 21.3544 30.6891 21.4353 30.7006 21.5277C30.7584 21.8741 30.8394 22.1744 30.9666 22.4862C31.1053 22.7634 31.14 23.0522 31.2788 23.3293C31.4176 23.5719 31.5101 23.8029 31.6026 24.0454C31.857 24.5766 32.1576 25.0617 32.4583 25.5699C32.8398 26.1589 33.233 26.6555 33.6724 27.1868C34.3547 27.9606 35.06 28.6304 35.8926 29.2541C36.1817 29.4504 36.4361 29.6352 36.7251 29.8431C36.7598 29.8777 36.8176 29.8662 36.8523 29.9008C37.6618 30.4667 38.529 30.871 39.4194 31.2521C38.2284 29.7276 37.2686 28.0414 36.5633 26.2166C36.5054 26.0549 36.4245 25.8702 36.3667 25.6969C35.962 24.4958 35.7076 23.3409 35.5225 22.0589C35.4416 21.3891 35.3954 20.7654 35.3954 20.0956C35.3838 18.9522 35.511 17.8897 35.6844 16.7117C35.7076 16.6193 35.6613 16.55 35.6844 16.4576C35.8001 15.2911 35.8116 14.2401 35.6497 13.0968C35.6497 13.0621 35.6729 13.0044 35.6729 12.9697C35.6266 12.5655 35.5688 12.2075 35.4994 11.8033C35.4416 11.5261 35.3838 11.2835 35.3375 11.0295C35.3144 10.9717 35.3028 10.9602 35.2797 10.9024C35.0485 9.87455 34.7362 8.95061 34.3315 8.00358C35.8579 11.0641 36.5054 14.552 36.147 17.9359C36.1585 18.7097 36.1007 19.4719 36.2048 20.2688C36.2048 20.3035 36.1817 20.3612 36.1817 20.3958C36.3089 21.4353 36.4476 22.3361 36.7136 23.3293C37.1067 24.7268 37.6386 25.9856 38.3093 27.2561C38.344 27.3254 38.425 27.4062 38.4596 27.4755C39.1303 28.7113 39.9629 29.7738 40.8533 30.8132C40.9458 30.5014 40.9226 30.2242 40.9805 29.8662C41.0383 29.589 41.073 29.2887 41.0614 29C41.073 28.7575 41.1192 28.538 41.1539 28.3186C41.3389 26.2975 41.4777 24.4496 41.5702 22.4516C41.628 20.7539 41.709 19.1832 41.6396 17.497C41.6396 17.4277 41.6049 17.3469 41.6049 17.2776C41.5586 15.73 41.2811 14.2863 40.8301 12.7965C40.3098 11.1565 39.5235 9.73596 38.4828 8.36161C38.4481 8.32696 38.4018 8.29231 38.3671 8.24611C37.7543 7.41457 37.0374 6.72162 36.2395 6.06332Z" fill="#009345"/>
<path d="M5.58487 28.3301C5.49236 28.2031 5.3536 28.076 5.26109 27.9606C4.8795 27.487 4.55573 27.0251 4.24352 26.5054C3.81567 25.7547 3.46877 25.004 3.17969 24.2071C4.13945 24.0107 5.07608 23.8952 6.09366 23.7567C7.62002 23.5834 9.03075 23.4448 10.5456 23.2947C12.5113 23.133 14.3036 22.9829 16.2694 23.0753C16.3041 23.0753 16.3388 23.1099 16.3619 23.1099C16.6048 23.1215 16.836 23.133 17.0789 23.1561C17.3217 23.2023 17.553 23.2138 17.7958 23.26C18.0849 23.3178 18.3508 23.3293 18.6283 23.4102C18.6977 23.4448 18.7555 23.4679 18.8365 23.491C19.1371 23.5372 19.3915 23.595 19.669 23.6989C19.9119 23.8029 20.1663 23.8375 20.4091 23.9414C20.6172 24.0454 20.8254 24.1262 21.0335 24.2071C21.4961 24.4034 21.9123 24.6575 22.3633 24.9C22.8721 25.2119 23.3115 25.5352 23.774 25.8933C24.4447 26.4476 25.046 27.0251 25.5895 27.718C25.7629 27.949 25.9248 28.1684 26.1098 28.3994C26.1445 28.4341 26.1214 28.4803 26.1561 28.5034C26.6533 29.1732 27.0118 29.8893 27.3587 30.6284C26.0289 29.6467 24.5488 28.8729 22.9646 28.307C22.8258 28.2608 22.664 28.2031 22.5136 28.1569C21.4729 27.8335 20.4669 27.6372 19.3684 27.5101C18.7902 27.4524 18.2468 27.4293 17.6801 27.4293C16.6857 27.4408 15.7838 27.5563 14.7662 27.718C14.6852 27.7296 14.6274 27.7065 14.5465 27.718C13.5405 27.8335 12.6385 27.8566 11.6441 27.7411C11.6094 27.7411 11.5631 27.7527 11.5284 27.7527C11.1815 27.7296 10.8693 27.6834 10.5224 27.6256C10.2796 27.5794 10.0715 27.5332 9.85175 27.5101C9.8055 27.4986 9.78237 27.4755 9.73612 27.4639C8.84574 27.2792 8.0363 27.0366 7.22687 26.7132C9.88644 27.949 12.9045 28.4456 15.8184 28.0876C16.4891 28.0876 17.1367 28.0299 17.8305 28.0991C17.8652 28.0991 17.9114 28.0876 17.9461 28.0876C18.8365 28.18 19.6228 28.2724 20.49 28.4918C21.7042 28.7921 22.7912 29.231 23.9012 29.7622C23.9706 29.7969 24.0284 29.8546 24.0978 29.8893C25.1732 30.4321 26.0983 31.1135 27.0233 31.8411C26.7574 31.9219 26.5146 31.9104 26.2139 31.9566C25.9711 32.0028 25.7167 32.0374 25.4623 32.0374C25.2542 32.0605 25.0691 32.0836 24.8726 32.1183C23.1381 32.303 21.5423 32.4416 19.8194 32.5571C18.3508 32.638 16.9979 32.7188 15.5409 32.6842C15.4715 32.6842 15.4137 32.6495 15.3443 32.6495C14.003 32.6264 12.7542 32.4185 11.4591 32.0721C10.0368 31.6563 8.79948 31.0211 7.59689 30.178C7.5622 30.1434 7.52751 30.1203 7.50439 30.0856C6.77589 29.5774 6.16304 28.9884 5.58487 28.3301Z" fill="#37B34A"/>
<path d="M25.2427 2.19434C25.1386 2.1135 25.023 2.00956 24.9189 1.92871C24.5142 1.61689 24.0979 1.35125 23.647 1.09717C22.9879 0.750697 22.3403 0.461968 21.6465 0.242534C21.4962 1.03943 21.4037 1.83632 21.2996 2.69096C21.1724 3.97292 21.0799 5.15093 20.9643 6.42134C20.8602 8.06133 20.7446 9.57427 20.8602 11.2142C20.8602 11.2373 20.8833 11.272 20.8833 11.2951C20.8949 11.4914 20.918 11.6993 20.9296 11.8957C20.9758 12.092 20.9874 12.2999 21.0337 12.4962C21.0915 12.7387 21.103 12.9582 21.1724 13.1892C21.1955 13.2469 21.2302 13.2931 21.2418 13.3624C21.288 13.6165 21.3459 13.8244 21.4384 14.0553C21.5309 14.2517 21.5656 14.4711 21.6581 14.6675C21.7506 14.8407 21.82 15.0139 21.8893 15.1872C22.0744 15.5683 22.2941 15.9148 22.5138 16.2959C22.7913 16.7232 23.0804 17.0812 23.3926 17.4624C23.8898 18.0167 24.387 18.5133 24.9883 18.9522C25.1965 19.1023 25.3815 19.2294 25.5896 19.3795C25.6127 19.4026 25.659 19.3911 25.6821 19.4142C26.2719 19.8184 26.8963 20.1071 27.5323 20.3843C26.665 19.2871 25.9828 18.0629 25.4624 16.7463C25.4162 16.6308 25.3699 16.4922 25.3237 16.3767C25.0346 15.5105 24.8496 14.6675 24.7224 13.7551C24.6645 13.27 24.6299 12.8196 24.6299 12.3461C24.6183 11.5145 24.7108 10.7523 24.838 9.89764C24.8496 9.82835 24.8264 9.78215 24.838 9.71286C24.9305 8.86977 24.9305 8.10752 24.8149 7.28753C24.8149 7.26443 24.8264 7.21824 24.8264 7.19514C24.7917 6.90641 24.7571 6.65233 24.6992 6.35205C24.653 6.15571 24.6183 5.98247 24.5836 5.79769C24.572 5.76304 24.5605 5.73994 24.5374 5.70529C24.3639 4.9546 24.1442 4.29629 23.8551 3.61489C24.9652 5.82079 25.4277 8.33851 25.1618 10.7869C25.1618 11.3528 25.1271 11.8957 25.208 12.4731C25.208 12.4962 25.1965 12.5424 25.1965 12.5655C25.289 13.3162 25.3815 13.963 25.5781 14.6906C25.8556 15.7069 26.2487 16.6077 26.7344 17.5201C26.7575 17.5778 26.8153 17.624 26.85 17.6818C27.3357 18.5711 27.937 19.3449 28.5845 20.0956C28.6539 19.8646 28.6308 19.6682 28.677 19.4142C28.7117 19.2178 28.7464 18.9984 28.7349 18.7905C28.7464 18.6173 28.7695 18.4556 28.7927 18.2939C28.9314 16.8387 29.0239 15.499 29.0933 14.0553C29.1396 12.8311 29.1974 11.6878 29.1396 10.4751C29.1396 10.4174 29.1164 10.3712 29.1164 10.3134C29.0818 9.19314 28.8852 8.15372 28.5614 7.0681C28.1798 5.87853 27.6248 4.8622 26.8616 3.86897C26.8385 3.84588 26.8038 3.81123 26.7806 3.78813C26.3297 3.17602 25.8093 2.66786 25.2427 2.19434Z" fill="#37B34A"/>
<path d="M3.9547 19.3102C3.88532 19.2178 3.79281 19.137 3.72343 19.0446C3.44591 18.7097 3.21464 18.3747 3.0065 18.0167C2.70585 17.4855 2.45146 16.9542 2.25488 16.3883C2.93712 16.2497 3.59623 16.1689 4.32473 16.0649C5.41168 15.9494 6.40613 15.8455 7.48152 15.7415C8.86913 15.626 10.1527 15.5221 11.5403 15.5798C11.5634 15.5798 11.5865 15.6029 11.6096 15.6029C11.7831 15.6145 11.945 15.626 12.1184 15.6376C12.2919 15.6722 12.4538 15.6838 12.6272 15.7069C12.8354 15.7531 13.0204 15.7646 13.217 15.8108C13.2632 15.8339 13.3095 15.857 13.3673 15.8686C13.587 15.9032 13.7604 15.9379 13.957 16.0187C14.1305 16.0996 14.3039 16.1111 14.4774 16.192C14.6277 16.2728 14.778 16.319 14.9168 16.3767C15.2405 16.5153 15.5412 16.7001 15.865 16.8734C16.2234 17.0928 16.5356 17.3238 16.871 17.5779C17.3451 17.9705 17.7729 18.3863 18.1661 18.8714C18.2933 19.033 18.4089 19.1947 18.5361 19.3564C18.5592 19.3795 18.5477 19.4142 18.5708 19.4373C18.9293 19.9108 19.1837 20.4189 19.4265 20.9502C18.4783 20.2573 17.4376 19.7029 16.3159 19.3102C16.2119 19.2756 16.0962 19.2294 16.0037 19.2063C15.2637 18.9753 14.5467 18.8367 13.772 18.7443C13.3673 18.6981 12.9741 18.6866 12.5694 18.6866C11.864 18.6981 11.2281 18.779 10.4996 18.8945C10.4417 18.906 10.3955 18.8829 10.3377 18.8945C9.62075 18.9753 8.98476 18.9984 8.2794 18.9176C8.25627 18.9176 8.22158 18.9291 8.19845 18.9291C7.94406 18.906 7.73592 18.8829 7.48152 18.8367C7.30807 18.8021 7.16931 18.7674 7.00743 18.7559C6.93805 18.7212 6.92648 18.7097 6.90336 18.6981C6.26737 18.5711 5.70077 18.3978 5.1226 18.1669C7.00743 19.0446 9.14665 19.3911 11.2165 19.137C11.6906 19.137 12.1531 19.0908 12.6388 19.1485C12.6619 19.1485 12.6966 19.137 12.7197 19.137C13.3557 19.1947 13.9108 19.2756 14.5236 19.4257C15.3909 19.6452 16.154 19.9454 16.9404 20.3266C16.9866 20.3497 17.0329 20.3959 17.0791 20.4189C17.8423 20.8001 18.5014 21.2851 19.149 21.8048C18.9524 21.8626 18.7905 21.851 18.5708 21.8857C18.3973 21.9203 18.2239 21.9434 18.0389 21.9434C17.8886 21.955 17.7614 21.9781 17.6226 22.0012C16.3853 22.1398 15.2637 22.2322 14.038 22.313C12.9973 22.3708 12.0375 22.4285 11.0084 22.4054C10.9621 22.4054 10.9158 22.3823 10.8696 22.3823C9.92139 22.3708 9.03102 22.2206 8.11751 21.9665C7.1115 21.6778 6.23268 21.2274 5.37699 20.6153C5.35387 20.5922 5.33074 20.5691 5.30761 20.546C4.79882 20.1995 4.35942 19.7722 3.9547 19.3102Z" fill="#8BC53F"/>
<path d="M17.3568 1.37435C17.2758 1.31661 17.2065 1.24731 17.1255 1.18956C16.8364 0.97013 16.5473 0.773795 16.2236 0.600557C15.761 0.358024 15.2985 0.150139 14.8013 0C14.6856 0.565909 14.6278 1.13182 14.5584 1.73238C14.4659 2.64476 14.3966 3.4763 14.3272 4.37714C14.2462 5.5436 14.1768 6.61768 14.2462 7.77259C14.2462 7.79569 14.2694 7.80724 14.2694 7.83034C14.2809 7.96893 14.2925 8.11907 14.304 8.25766C14.3387 8.39625 14.3503 8.54639 14.3734 8.68498C14.4081 8.85822 14.4197 9.0199 14.4775 9.18159C14.5006 9.21624 14.5122 9.26244 14.5237 9.30863C14.5584 9.49342 14.5931 9.64356 14.6625 9.80525C14.7319 9.94384 14.755 10.094 14.8244 10.2441C14.8938 10.3712 14.94 10.4866 14.9863 10.6137C15.1135 10.8909 15.2754 11.1334 15.4257 11.399C15.6223 11.6993 15.8304 11.9534 16.0501 12.2306C16.397 12.6232 16.7555 12.9697 17.1833 13.2931C17.3336 13.397 17.4608 13.4894 17.6112 13.5934C17.6343 13.6165 17.6574 13.6049 17.6805 13.6165C18.0968 13.9052 18.5362 14.1131 18.9988 14.3094C18.3859 13.5241 17.9003 12.6579 17.5302 11.7224C17.4955 11.6416 17.4608 11.5376 17.4262 11.4568C17.218 10.8447 17.0908 10.2441 16.9983 9.59736C16.9636 9.23934 16.9405 8.91596 16.9289 8.56949C16.9289 7.98048 16.9867 7.43767 17.0793 6.83711C17.0908 6.79091 17.0677 6.75627 17.0793 6.71007C17.1371 6.10951 17.1486 5.57825 17.0677 4.98924C17.0677 4.96614 17.0793 4.94305 17.0793 4.91995C17.0561 4.71206 17.033 4.52728 16.9867 4.31939C16.9521 4.1808 16.9289 4.05376 16.9058 3.92672C16.8942 3.90362 16.8827 3.89207 16.8711 3.85742C16.7555 3.32616 16.5936 2.85265 16.3855 2.37913C17.1718 3.94982 17.5071 5.72839 17.3105 7.47231C17.3105 7.86499 17.2874 8.25766 17.3452 8.66188C17.3452 8.68498 17.3336 8.70808 17.3336 8.73117C17.3915 9.26244 17.4724 9.7244 17.6112 10.2326C17.8077 10.9486 18.0853 11.5954 18.4322 12.2421C18.4553 12.2768 18.49 12.323 18.5131 12.3576C18.86 12.9928 19.2879 13.5356 19.7388 14.0669C19.7851 13.9052 19.7735 13.7666 19.7966 13.5818C19.8198 13.4432 19.8429 13.2931 19.8429 13.1314C19.8545 13.0044 19.866 12.8889 19.8892 12.7849C19.9817 11.7571 20.051 10.7985 20.1089 9.78215C20.1435 8.91596 20.1782 8.10752 20.1435 7.24133C20.1435 7.20668 20.1204 7.16049 20.1204 7.12584C20.0973 6.32895 19.9585 5.5898 19.7273 4.82755C19.4613 3.98446 19.0566 3.25687 18.5247 2.55237C18.5015 2.54082 18.4784 2.51772 18.4553 2.49462C18.1315 2.07885 17.7731 1.72083 17.3568 1.37435Z" fill="#8BC53F"/>
<path d="M1.22572 12.681C1.17946 12.6117 1.11008 12.554 1.06383 12.4847C0.867253 12.2421 0.705365 11.9996 0.543478 11.7455C0.323774 11.3644 0.13876 10.9717 0 10.5675C0.485661 10.4636 0.971323 10.4058 1.49167 10.3365C2.27798 10.2441 2.99491 10.1748 3.76966 10.094C4.77567 10.0132 5.70074 9.93231 6.70675 9.99006C6.71832 9.99006 6.74144 10.0016 6.75301 10.0016C6.8802 10.0132 6.99584 10.0132 7.12303 10.0247C7.25023 10.0478 7.36587 10.0478 7.49306 10.0709C7.64339 10.1055 7.78215 10.1055 7.92091 10.1517C7.9556 10.1633 7.99029 10.1864 8.02498 10.1864C8.1753 10.2095 8.31406 10.2441 8.45282 10.2903C8.58002 10.3481 8.70722 10.3596 8.83441 10.4174C8.93848 10.4751 9.04255 10.5098 9.15819 10.556C9.38945 10.6599 9.5976 10.7869 9.82886 10.914C10.0948 11.0757 10.3145 11.2374 10.5574 11.4222C10.9043 11.7109 11.2049 11.9996 11.494 12.3576C11.5865 12.4731 11.6674 12.5886 11.7599 12.7041C11.7715 12.7157 11.7715 12.7388 11.7831 12.7619C12.0375 13.1083 12.2225 13.4779 12.3959 13.8475C11.7137 13.3509 10.9621 12.9466 10.1411 12.6579C10.0717 12.6348 9.99075 12.6002 9.90981 12.5771C9.37789 12.4154 8.85754 12.3114 8.29093 12.2421C8.00185 12.2075 7.71277 12.1959 7.42368 12.1959C6.91489 12.1959 6.45236 12.2652 5.93201 12.3461C5.88575 12.3576 5.86263 12.3345 5.81637 12.3461C5.30759 12.4038 4.83349 12.4154 4.3247 12.3576C4.31314 12.3576 4.27845 12.3692 4.26688 12.3692C4.08187 12.3576 3.93155 12.3345 3.74653 12.2999C3.61933 12.2768 3.51526 12.2537 3.39963 12.2421C3.3765 12.2306 3.36494 12.2306 3.34181 12.219C2.87928 12.1267 2.47456 11.9996 2.05828 11.8379C3.42276 12.4731 4.97225 12.7272 6.46392 12.5424C6.81082 12.5424 7.14616 12.5078 7.49306 12.554C7.50463 12.554 7.53932 12.5424 7.55088 12.5424C8.01341 12.5886 8.40657 12.6348 8.85754 12.7503C9.48196 12.9004 10.037 13.1314 10.6036 13.4086C10.6383 13.4202 10.673 13.4548 10.7077 13.4779C11.2627 13.7551 11.7368 14.1016 12.1994 14.4827C12.0606 14.5289 11.9334 14.5173 11.7831 14.5404C11.6559 14.5635 11.5287 14.5866 11.4015 14.5866C11.2974 14.5982 11.1933 14.6097 11.1008 14.6328C10.2105 14.7252 9.38945 14.8061 8.51064 14.8523C7.75902 14.8869 7.06522 14.9331 6.32516 14.9216C6.29047 14.9216 6.25578 14.91 6.23266 14.91C5.55042 14.8985 4.90287 14.7945 4.24376 14.6097C3.51526 14.4018 2.87928 14.0785 2.26642 13.6396C2.25486 13.628 2.23173 13.6049 2.22017 13.5934C1.83858 13.3162 1.52636 13.0159 1.22572 12.681Z" fill="#D6DE23"/>
<path d="M10.9157 0.993229C10.8579 0.958582 10.8116 0.900836 10.7538 0.866188C10.5457 0.7045 10.3259 0.56591 10.0947 0.438869C9.75934 0.265631 9.43557 0.115492 9.0771 0C8.99616 0.41577 8.94991 0.819991 8.89209 1.25886C8.83427 1.90561 8.78802 2.51772 8.7302 3.16447C8.67239 4.00756 8.61457 4.78136 8.67239 5.62445C8.67239 5.636 8.68395 5.64755 8.68395 5.67064C8.69551 5.77459 8.69551 5.87853 8.70708 5.98247C8.7302 6.08641 8.74177 6.19036 8.75333 6.2943C8.78802 6.39824 8.79958 6.51373 8.83427 6.62923C8.84584 6.65232 8.8574 6.68697 8.86896 6.72162C8.89209 6.84866 8.91522 6.96415 8.97303 7.07964C9.01929 7.18359 9.03085 7.28753 9.08867 7.39147C9.13492 7.48387 9.16961 7.56471 9.2043 7.6571C9.29681 7.85344 9.41244 8.02668 9.51651 8.22301C9.65527 8.44245 9.8056 8.62723 9.96748 8.82357C10.2219 9.10075 10.4878 9.35483 10.7885 9.58582C10.8926 9.65511 10.9966 9.72441 11.1007 9.80525C11.1123 9.8168 11.1354 9.80525 11.1469 9.8168C11.4476 10.0247 11.7714 10.1748 12.0951 10.3134C11.6557 9.7475 11.2973 9.12385 11.0313 8.44245C11.0197 8.39625 10.9851 8.32695 10.9735 8.26921C10.8232 7.81879 10.7191 7.39147 10.6613 6.91796C10.6266 6.67542 10.615 6.44444 10.615 6.19036C10.615 5.76304 10.6613 5.37037 10.7191 4.9315C10.7307 4.89685 10.7075 4.87375 10.7191 4.8391C10.7654 4.41178 10.7654 4.01911 10.7075 3.59179C10.7075 3.58024 10.7191 3.55715 10.7191 3.5456C10.696 3.39546 10.6728 3.26842 10.6497 3.11828C10.6266 3.01433 10.6035 2.93349 10.5919 2.82955C10.5803 2.818 10.5688 2.80645 10.5688 2.78335C10.4763 2.40223 10.3722 2.05575 10.2219 1.70928C10.7885 2.8411 11.0313 4.1346 10.8926 5.38192C10.8926 5.67064 10.881 5.94782 10.9157 6.2481C10.9157 6.25965 10.9041 6.28275 10.9041 6.2943C10.9504 6.68697 10.9966 7.0219 11.1007 7.39147C11.2395 7.91118 11.4476 8.37315 11.6904 8.84667C11.702 8.86977 11.7367 8.90441 11.7482 8.92751C11.9911 9.38948 12.3033 9.78215 12.6386 10.1633C12.6733 10.0478 12.6617 9.94384 12.6849 9.8168C12.708 9.71286 12.7196 9.60891 12.7196 9.49342C12.7196 9.40103 12.7311 9.32018 12.7427 9.23934C12.8121 8.48864 12.8583 7.80724 12.893 7.06809C12.9161 6.43289 12.9393 5.85543 12.9161 5.23178C12.9161 5.20868 12.9046 5.17403 12.9046 5.15093C12.8815 4.57347 12.7889 4.04221 12.6155 3.48785C12.4189 2.87574 12.1298 2.35603 11.7482 1.84787C11.7367 1.83632 11.7251 1.82477 11.702 1.80167C11.4823 1.50139 11.2163 1.23576 10.9157 0.993229Z" fill="#F9EC31"/>
<path d="M92.6112 40.3528C92.7499 40.1796 92.9234 40.0063 93.0622 39.8331C93.5941 39.1864 94.045 38.5396 94.4729 37.8236C95.0511 36.7841 95.5483 35.7447 95.9414 34.636C94.6232 34.3588 93.3166 34.1971 91.9058 34.0123C89.7897 33.7813 87.8471 33.585 85.7541 33.3771C83.0367 33.1577 80.5506 32.9383 77.8332 33.0653C77.7869 33.0653 77.7407 33.1115 77.706 33.1115C77.3707 33.1346 77.0469 33.1461 76.7116 33.1692C76.3762 33.227 76.0525 33.2501 75.7171 33.3078C75.324 33.3887 74.9424 33.4118 74.5723 33.5157C74.4798 33.5619 74.3989 33.5966 74.2832 33.6197C73.867 33.6774 73.5085 33.7698 73.1269 33.9199C72.7916 34.0701 72.4447 34.1047 72.1093 34.2549C71.8203 34.405 71.5312 34.5089 71.2421 34.6129C70.5945 34.8901 70.0164 35.2365 69.4035 35.5715C68.6981 35.9988 68.0969 36.4492 67.4493 36.9458C66.5127 37.7196 65.6917 38.5165 64.9285 39.4635C64.6857 39.7869 64.4544 40.0872 64.2116 40.4106C64.1653 40.4568 64.1884 40.5145 64.1422 40.5607C63.4484 41.4846 62.9511 42.4894 62.4771 43.5057C64.3272 42.1545 66.3623 41.0804 68.5594 40.2951C68.756 40.2258 68.9757 40.1449 69.1838 40.0872C70.6177 39.6483 72.0168 39.3711 73.5432 39.1864C74.3411 39.1055 75.0927 39.0709 75.8906 39.0709C77.255 39.0824 78.5154 39.2441 79.9262 39.4751C80.0418 39.4982 80.1228 39.452 80.2384 39.4751C81.626 39.6368 82.8864 39.6714 84.2624 39.5097C84.3087 39.5097 84.3781 39.5328 84.4128 39.5328C84.8984 39.4982 85.3147 39.4289 85.8004 39.348C86.1357 39.2903 86.4248 39.221 86.7254 39.1864C86.7948 39.1633 86.8179 39.1402 86.8758 39.1171C88.113 38.863 89.2231 38.5281 90.3563 38.0776C86.6792 39.7869 82.4932 40.4683 78.4576 39.9717C77.5326 39.9602 76.6306 39.8909 75.6709 39.9948C75.6246 39.9948 75.5552 39.9717 75.5205 39.9717C74.2832 40.0872 73.1963 40.2373 72.0053 40.5261C70.3286 40.9418 68.8138 41.5424 67.2874 42.2931C67.1949 42.3393 67.114 42.4201 67.0215 42.4663C65.5298 43.217 64.2462 44.1641 62.9743 45.1688C63.3443 45.2843 63.6796 45.2612 64.0959 45.3305C64.4313 45.3998 64.7782 45.446 65.1366 45.446C65.4257 45.4691 65.6917 45.5153 65.9576 45.5615C68.3628 45.8156 70.5714 46.0119 72.9535 46.1621C74.9886 46.266 76.8619 46.393 78.8739 46.3468C78.9664 46.3468 79.0474 46.3006 79.1399 46.3006C80.99 46.2775 82.7245 45.9888 84.5168 45.5038C86.4826 44.9378 88.194 44.0601 89.8591 42.8705C89.9054 42.8243 89.9516 42.7897 89.9979 42.7435C90.9692 42.0852 91.8133 41.2652 92.6112 40.3528Z" fill="#006838"/>
<path d="M63.7605 6.06332C63.9108 5.95938 64.0611 5.80924 64.2115 5.69375C64.7781 5.25488 65.3447 4.8853 65.9691 4.53883C66.871 4.06531 67.7845 3.67264 68.7443 3.36081C68.964 4.46953 69.0796 5.56671 69.2184 6.74472C69.3919 8.52329 69.5306 10.1517 69.6809 11.9072C69.8313 14.1824 69.9816 16.2728 69.8313 18.548C69.8313 18.5826 69.7966 18.6173 69.7966 18.6635C69.7734 18.9407 69.7503 19.2178 69.7272 19.495C69.6694 19.7722 69.6462 20.0494 69.5884 20.3266C69.5075 20.6615 69.4844 20.9733 69.3918 21.2851C69.3572 21.3544 69.3109 21.4353 69.2993 21.5277C69.2415 21.8741 69.1606 22.1744 69.0334 22.4862C68.8946 22.7634 68.8599 23.0522 68.7212 23.3293C68.5824 23.5719 68.4899 23.8029 68.3974 24.0454C68.143 24.5766 67.8424 25.0617 67.5417 25.5699C67.1601 26.1589 66.767 26.6555 66.3276 27.1868C65.6453 27.9606 64.94 28.6304 64.119 29.2541C63.8299 29.4504 63.5755 29.6352 63.2864 29.8431C63.2517 29.8777 63.1939 29.8662 63.1592 29.9008C62.3498 30.4667 61.4825 30.871 60.5921 31.2521C61.7832 29.7276 62.7429 28.0414 63.4483 26.2166C63.5061 26.0549 63.587 25.8702 63.6449 25.6969C64.0496 24.4958 64.304 23.3409 64.489 22.0589C64.5699 21.3891 64.6162 20.7654 64.6162 20.0956C64.6277 18.9522 64.5005 17.8897 64.3271 16.7117C64.304 16.6193 64.3502 16.55 64.3271 16.4576C64.2115 15.2911 64.1999 14.2401 64.3618 13.0968C64.3618 13.0621 64.3387 13.0044 64.3387 12.9697C64.3849 12.5655 64.4427 12.2075 64.5121 11.8033C64.5699 11.5261 64.6277 11.2835 64.674 11.0295C64.6971 10.9717 64.7087 10.9602 64.7318 10.9024C64.9631 9.87455 65.2753 8.95061 65.68 8.00358C64.1536 11.0641 63.5061 14.552 63.8646 17.9359C63.853 18.7097 63.9108 19.4719 63.8067 20.2688C63.8067 20.3035 63.8299 20.3612 63.8299 20.3958C63.7027 21.4353 63.5639 22.3361 63.298 23.3293C62.9048 24.7268 62.3729 25.9856 61.7022 27.2561C61.6675 27.3254 61.5866 27.4062 61.5519 27.4755C60.8812 28.7113 60.0486 29.7738 59.1583 30.8132C59.0658 30.5014 59.0889 30.2242 59.0311 29.8662C58.9733 29.589 58.9386 29.2887 58.9501 29C58.9386 28.7575 58.8923 28.538 58.8576 28.3186C58.6726 26.2975 58.5338 24.4496 58.4413 22.4516C58.3835 20.7539 58.3026 19.1832 58.372 17.497C58.372 17.4277 58.4066 17.3469 58.4066 17.2776C58.4529 15.73 58.7304 14.2863 59.1814 12.7965C59.7017 11.1565 60.4881 9.73596 61.5288 8.36161C61.5634 8.32696 61.6097 8.29231 61.6444 8.24611C62.2457 7.41457 62.9742 6.72162 63.7605 6.06332Z" fill="#009345"/>
<path d="M94.4265 28.3301C94.519 28.2031 94.6578 28.076 94.7503 27.9606C95.1319 27.487 95.4556 27.0251 95.7678 26.5054C96.1841 25.7547 96.5426 25.004 96.8201 24.2071C95.8604 24.0107 94.9237 23.8952 93.9061 23.7567C92.3798 23.5834 90.9691 23.4448 89.4543 23.2947C87.4885 23.133 85.6962 22.9829 83.7304 23.0753C83.6957 23.0753 83.661 23.1099 83.6379 23.1099C83.395 23.1215 83.1638 23.133 82.9209 23.1561C82.6781 23.2023 82.4468 23.2138 82.204 23.26C81.9149 23.3178 81.649 23.3293 81.3715 23.4102C81.3021 23.4448 81.2443 23.4679 81.1633 23.491C80.8627 23.5372 80.6083 23.595 80.3308 23.6989C80.0879 23.8029 79.8335 23.8375 79.5907 23.9414C79.3826 24.0454 79.1744 24.1262 78.9663 24.2071C78.5037 24.4034 78.0875 24.6575 77.6365 24.9C77.1277 25.2119 76.6883 25.5352 76.2258 25.8933C75.5551 26.4476 74.9538 27.0251 74.4103 27.718C74.2369 27.949 74.075 28.1684 73.89 28.3994C73.8553 28.4341 73.8784 28.4803 73.8437 28.5034C73.3465 29.1732 72.988 29.8893 72.6411 30.6284C73.9709 29.6467 75.451 28.8729 77.0352 28.307C77.174 28.2608 77.3358 28.2031 77.4862 28.1569C78.5269 27.8335 79.5329 27.6372 80.6314 27.5101C81.2096 27.4524 81.753 27.4293 82.3197 27.4293C83.3141 27.4408 84.216 27.5563 85.2336 27.718C85.3146 27.7296 85.3724 27.7065 85.4533 27.718C86.4593 27.8335 87.3613 27.8566 88.3557 27.7411C88.3904 27.7411 88.4367 27.7527 88.4714 27.7527C88.8183 27.7296 89.1305 27.6834 89.4774 27.6256C89.7202 27.5794 89.9283 27.5332 90.1481 27.5101C90.1943 27.4986 90.2174 27.4755 90.2637 27.4639C91.1541 27.2792 91.9635 27.0366 92.7729 26.7132C90.1134 27.949 87.0953 28.4456 84.1814 28.0876C83.5107 28.0876 82.8631 28.0299 82.1693 28.0991C82.1346 28.0991 82.0884 28.0876 82.0537 28.0876C81.1633 28.18 80.377 28.2724 79.5098 28.4918C78.2956 28.7921 77.2086 29.231 76.0986 29.7622C76.0292 29.7969 75.9714 29.8546 75.902 29.8893C74.8266 30.4321 73.9015 31.1135 72.9765 31.8411C73.2424 31.9219 73.4852 31.9104 73.7859 31.9566C74.0287 32.0028 74.2831 32.0374 74.5375 32.0374C74.7456 32.0605 74.9307 32.0836 75.1272 32.1183C76.8617 32.303 78.4575 32.4416 80.1804 32.5571C81.649 32.638 83.0019 32.7188 84.4589 32.6842C84.5283 32.6842 84.5861 32.6495 84.6555 32.6495C85.9968 32.6264 87.2456 32.4185 88.5407 32.0721C89.963 31.6563 91.2003 31.0211 92.4029 30.178C92.4376 30.1434 92.4723 30.1203 92.4954 30.0856C93.2355 29.5774 93.8483 28.9884 94.4265 28.3301Z" fill="#37B34A"/>
<path d="M74.7688 2.19434C74.8728 2.1135 74.9885 2.00956 75.0925 1.92871C75.4973 1.61689 75.9135 1.35125 76.3645 1.09717C77.0236 0.750697 77.6712 0.461968 78.365 0.242534C78.5153 1.03943 78.6078 1.83632 78.7119 2.69096C78.8391 3.97292 78.9316 5.15093 79.0472 6.42134C79.1513 8.06133 79.2669 9.57427 79.1513 11.2142C79.1513 11.2373 79.1281 11.272 79.1281 11.2951C79.1166 11.4914 79.0935 11.6993 79.0819 11.8957C79.0356 12.092 79.0241 12.2999 78.9778 12.4962C78.92 12.7387 78.9084 12.9582 78.8391 13.1892C78.8159 13.2469 78.7812 13.2931 78.7697 13.3624C78.7234 13.6165 78.6656 13.8244 78.5731 14.0553C78.4806 14.2517 78.4459 14.4711 78.3534 14.6675C78.2609 14.8407 78.1915 15.0139 78.1221 15.1872C77.9371 15.5683 77.7174 15.9148 77.4977 16.2959C77.2202 16.7232 76.9311 17.0812 76.6189 17.4624C76.1217 18.0167 75.6244 18.5133 75.0231 18.9522C74.815 19.1023 74.63 19.2294 74.4219 19.3795C74.3987 19.4026 74.3525 19.3911 74.3293 19.4142C73.7396 19.8184 73.1152 20.1071 72.4792 20.3843C73.3465 19.2871 74.0287 18.0629 74.5491 16.7463C74.5953 16.6308 74.6416 16.4922 74.6878 16.3767C74.9769 15.5105 75.1619 14.6675 75.2891 13.7551C75.3469 13.27 75.3816 12.8196 75.3816 12.3461C75.3932 11.5145 75.3007 10.7523 75.1735 9.89764C75.1619 9.82835 75.185 9.78215 75.1735 9.71286C75.081 8.86977 75.081 8.10752 75.1966 7.28753C75.1966 7.26443 75.185 7.21824 75.185 7.19514C75.2197 6.90641 75.2544 6.65233 75.3122 6.35205C75.3585 6.15571 75.3932 5.98247 75.4279 5.79769C75.4394 5.76304 75.451 5.73994 75.4741 5.70529C75.6476 4.9546 75.8673 4.29629 76.1564 3.61489C75.0463 5.82079 74.5837 8.33851 74.8497 10.7869C74.8497 11.3528 74.8844 11.8957 74.8034 12.4731C74.8034 12.4962 74.815 12.5424 74.815 12.5655C74.7225 13.3162 74.63 13.963 74.4334 14.6906C74.1559 15.7069 73.7627 16.6077 73.2771 17.5201C73.254 17.5778 73.1961 17.624 73.1614 17.6818C72.6758 18.5711 72.0745 19.3449 71.4269 20.0956C71.3576 19.8646 71.3807 19.6682 71.3344 19.4142C71.2997 19.2178 71.2651 18.9984 71.2766 18.7905C71.2651 18.6173 71.2419 18.4556 71.2188 18.2939C71.08 16.8387 70.9875 15.499 70.9182 14.0553C70.8719 12.8311 70.8141 11.6878 70.8719 10.4751C70.8719 10.4174 70.895 10.3712 70.895 10.3134C70.9297 9.19314 71.1263 8.15372 71.4501 7.0681C71.8317 5.87853 72.3867 4.8622 73.1499 3.86897C73.173 3.84588 73.2077 3.81123 73.2308 3.78813C73.6818 3.17602 74.1906 2.66786 74.7688 2.19434Z" fill="#37B34A"/>
<path d="M96.0567 19.3102C96.1261 19.2178 96.2186 19.137 96.288 19.0446C96.5655 18.7097 96.7968 18.3747 97.0049 18.0167C97.3056 17.4855 97.56 16.9542 97.7566 16.3883C97.0743 16.2497 96.4152 16.1689 95.6867 16.0649C94.5998 15.9494 93.6053 15.8455 92.5299 15.7415C91.1423 15.626 89.8588 15.5221 88.4712 15.5798C88.4481 15.5798 88.4249 15.6029 88.4018 15.6029C88.2283 15.6145 88.0665 15.626 87.893 15.6376C87.7196 15.6722 87.5577 15.6838 87.3842 15.7069C87.1761 15.7531 86.9911 15.7646 86.7945 15.8108C86.7482 15.8339 86.702 15.857 86.6442 15.8686C86.4245 15.9032 86.251 15.9379 86.0544 16.0187C85.881 16.0996 85.7075 16.1111 85.5341 16.192C85.3838 16.2728 85.2334 16.319 85.0947 16.3767C84.7709 16.5153 84.4702 16.7001 84.1465 16.8734C83.788 17.0928 83.4758 17.3238 83.1405 17.5779C82.6664 17.9705 82.2385 18.3863 81.8454 18.8714C81.7182 19.033 81.6025 19.1947 81.4753 19.3564C81.4522 19.3795 81.4638 19.4142 81.4406 19.4373C81.0822 19.9108 80.8278 20.4189 80.585 20.9502C81.5332 20.2573 82.5739 19.7029 83.6955 19.3102C83.7996 19.2756 83.9152 19.2294 84.0077 19.2063C84.7478 18.9753 85.4647 18.8367 86.2394 18.7443C86.6442 18.6981 87.0373 18.6866 87.442 18.6866C88.1474 18.6981 88.7834 18.779 89.5119 18.8945C89.5697 18.906 89.616 18.8829 89.6738 18.8945C90.3907 18.9753 91.0267 18.9984 91.732 18.9176C91.7552 18.9176 91.7899 18.9291 91.813 18.9291C92.0674 18.906 92.2755 18.8829 92.5299 18.8367C92.7034 18.8021 92.8421 18.7674 93.004 18.7559C93.0387 18.7443 93.0503 18.7328 93.085 18.7212C93.7209 18.5942 94.2875 18.4209 94.8657 18.19C92.9809 19.0677 90.8417 19.4142 88.7718 19.1601C88.2977 19.1601 87.8352 19.1139 87.3495 19.1716C87.3264 19.1716 87.2917 19.1601 87.2686 19.1601C86.6326 19.2178 86.0776 19.2987 85.4647 19.4488C84.5975 19.6683 83.8343 19.9685 83.048 20.3497C83.0017 20.3728 82.9554 20.4189 82.9092 20.442C82.146 20.8232 81.4869 21.3082 80.8394 21.8279C81.0359 21.8857 81.1978 21.8741 81.4175 21.9088C81.591 21.9434 81.7644 21.9665 81.9494 21.9665C82.0998 21.9781 82.227 22.0012 82.3657 22.0243C83.603 22.1629 84.7246 22.2553 85.9504 22.3361C86.9911 22.3939 87.9508 22.4516 88.98 22.4285C89.0262 22.4285 89.0725 22.4054 89.1187 22.4054C90.0669 22.3939 90.9573 22.2437 91.8708 21.9896C92.8768 21.7009 93.7556 21.2505 94.6113 20.6384C94.6344 20.6153 94.6576 20.5922 94.6807 20.5691C95.2126 20.1995 95.652 19.7722 96.0567 19.3102Z" fill="#8BC53F"/>
<path d="M82.6434 1.37435C82.7244 1.31661 82.7937 1.24731 82.8747 1.18956C83.1638 0.97013 83.4529 0.773795 83.7766 0.600557C84.2392 0.358024 84.7017 0.150139 85.1989 0C85.3146 0.565909 85.3724 1.13182 85.4418 1.73238C85.5343 2.64476 85.6036 3.4763 85.673 4.37714C85.754 5.5436 85.8234 6.61768 85.754 7.77259C85.754 7.79569 85.7308 7.80724 85.7308 7.83034C85.7193 7.96893 85.7077 8.11907 85.6962 8.25766C85.6615 8.39625 85.6499 8.54639 85.6268 8.68498C85.5921 8.85822 85.5805 9.0199 85.5227 9.18159C85.4996 9.21624 85.488 9.26244 85.4764 9.30863C85.4418 9.49342 85.4071 9.64356 85.3377 9.80525C85.2683 9.94384 85.2452 10.094 85.1758 10.2441C85.1064 10.3712 85.0602 10.4866 85.0139 10.6137C84.8867 10.8909 84.7248 11.1334 84.5745 11.399C84.3779 11.6993 84.1698 11.9534 83.9501 12.2306C83.6032 12.6232 83.2447 12.9697 82.8169 13.2931C82.6666 13.397 82.5394 13.4894 82.389 13.5934C82.3659 13.6165 82.3428 13.6049 82.3197 13.6165C81.9034 13.9052 81.464 14.1131 81.0014 14.3094C81.6143 13.5241 82.0999 12.6579 82.47 11.7224C82.5047 11.6416 82.5394 11.5376 82.574 11.4568C82.7822 10.8447 82.9094 10.2441 83.0019 9.59736C83.0481 9.26244 83.0597 8.93906 83.0713 8.59258C83.0713 8.00358 83.0135 7.46077 82.9209 6.86021C82.9094 6.81401 82.9325 6.77936 82.9209 6.73317C82.8631 6.13261 82.8516 5.60135 82.9325 5.01234C82.9325 4.98924 82.9209 4.96614 82.9209 4.94305C82.9441 4.73516 82.9672 4.55037 83.0135 4.34249C83.0481 4.2039 83.0713 4.07686 83.0944 3.94982C83.106 3.92672 83.1175 3.91517 83.1291 3.88052C83.2447 3.34926 83.4066 2.87574 83.6147 2.40223C82.8284 3.97292 82.4931 5.75149 82.6897 7.49541C82.6897 7.88808 82.7128 8.28076 82.655 8.68498C82.655 8.70808 82.6665 8.73117 82.6665 8.75427C82.6087 9.28553 82.5278 9.7475 82.389 10.2557C82.1925 10.9717 81.9149 11.6185 81.568 12.2652C81.5449 12.2999 81.5102 12.3461 81.4871 12.3807C81.1402 13.0159 80.7123 13.5587 80.2614 14.09C80.2151 13.9283 80.2267 13.7897 80.2036 13.6049C80.1804 13.4663 80.1573 13.3162 80.1573 13.1545C80.1457 13.0275 80.1342 12.912 80.111 12.808C80.0185 11.7802 79.9492 10.8216 79.8913 9.80525C79.8567 8.93906 79.822 8.13062 79.8567 7.26443C79.8567 7.22978 79.8798 7.18359 79.8798 7.14894C79.9029 6.35205 80.0417 5.6129 80.2729 4.85065C80.5389 4.00756 80.9436 3.27996 81.4755 2.57547C81.4987 2.55237 81.5102 2.54082 81.5333 2.51772C81.8687 2.07885 82.2387 1.72083 82.6434 1.37435Z" fill="#8BC53F"/>
<path d="M98.7745 12.681C98.8208 12.6117 98.8902 12.554 98.9364 12.4847C99.133 12.2421 99.2949 11.9996 99.4568 11.7455C99.6765 11.3644 99.8615 10.9717 100 10.5675C99.5146 10.4636 99.0289 10.4058 98.5086 10.3365C97.7223 10.2441 97.0054 10.1748 96.2306 10.094C95.2246 10.0131 94.2995 9.9323 93.2935 9.97849C93.2819 9.97849 93.2588 9.99004 93.2473 9.99004C93.1201 10.0016 93.0044 10.0016 92.8772 10.0131C92.75 10.0362 92.6344 10.0478 92.5072 10.0709C92.3569 10.1055 92.2181 10.1055 92.0794 10.1517C92.0447 10.1633 92.01 10.1864 91.9753 10.1864C91.825 10.2095 91.6862 10.2441 91.5474 10.2903C91.4202 10.3481 91.293 10.3596 91.1658 10.4174C91.0618 10.4751 90.9577 10.5098 90.8421 10.556C90.5992 10.6599 90.3911 10.7869 90.1598 10.914C89.8939 11.0757 89.6742 11.2374 89.4313 11.4221C89.0844 11.7109 88.7838 11.9996 88.4947 12.3576C88.4022 12.4731 88.3213 12.5886 88.2288 12.7041C88.2172 12.7156 88.2172 12.7387 88.2056 12.7618C87.9512 13.1083 87.7662 13.4779 87.5928 13.8475C88.275 13.3509 89.0266 12.9466 89.8476 12.6579C89.917 12.6348 89.998 12.6002 90.0789 12.5771C90.6108 12.4154 91.1312 12.3114 91.6978 12.2421C91.9869 12.2075 92.2759 12.1959 92.565 12.1959C93.0738 12.1959 93.5363 12.2652 94.0567 12.3461C94.1029 12.3576 94.1261 12.3345 94.1723 12.3461C94.6811 12.4038 95.1552 12.4154 95.664 12.3576C95.6756 12.3576 95.7103 12.3692 95.7218 12.3692C95.9068 12.3576 96.0572 12.3345 96.2422 12.2999C96.3694 12.2768 96.4734 12.2537 96.5891 12.2421C96.6122 12.2306 96.6238 12.2306 96.6469 12.219C97.1094 12.1266 97.5141 11.9996 97.9304 11.8379C96.5659 12.4731 95.0164 12.7272 93.5248 12.5424C93.1779 12.5424 92.8425 12.5078 92.4956 12.554C92.4841 12.554 92.4494 12.5424 92.4378 12.5424C91.9753 12.5886 91.5821 12.6348 91.1312 12.7503C90.5067 12.9004 89.9517 13.1314 89.3851 13.4086C89.3504 13.4201 89.3157 13.4548 89.281 13.4779C88.726 13.7551 88.2519 14.1015 87.7893 14.4827C87.9281 14.5289 88.0553 14.5173 88.2056 14.5404C88.3328 14.5635 88.46 14.5866 88.5872 14.5866C88.6913 14.5982 88.7954 14.6097 88.8879 14.6328C89.7783 14.7252 90.5992 14.806 91.4781 14.8522C92.2297 14.8869 92.9235 14.9331 93.6635 14.9215C93.6982 14.9215 93.7329 14.91 93.756 14.91C94.4383 14.8984 95.0858 14.7945 95.7449 14.6097C96.4734 14.4018 97.1094 14.0785 97.7223 13.6396C97.7338 13.628 97.757 13.6049 97.7685 13.5934C98.1733 13.3162 98.4855 13.0159 98.7745 12.681Z" fill="#D6DE23"/>
<path d="M89.0844 0.993229C89.1422 0.947032 89.2001 0.900836 89.2579 0.854639C89.466 0.69295 89.6742 0.55436 89.9054 0.427319C90.2408 0.265631 90.5761 0.115492 90.9346 0C91.0155 0.41577 91.0618 0.819991 91.108 1.25886C91.1774 1.91716 91.2236 2.51772 91.2815 3.16447C91.3393 4.00756 91.3971 4.78136 91.3393 5.62445C91.3393 5.636 91.3277 5.64755 91.3277 5.67064C91.3162 5.77459 91.3161 5.87853 91.3046 5.98247C91.2815 6.08641 91.2699 6.19036 91.2583 6.2943C91.2236 6.42134 91.2236 6.53683 91.189 6.65233C91.1774 6.67542 91.1658 6.71007 91.1543 6.74472C91.1311 6.87176 91.108 6.98725 91.0502 7.10274C91.0039 7.20669 90.9808 7.31063 90.9346 7.41457C90.8883 7.50696 90.8536 7.58781 90.8189 7.6802C90.7264 7.87654 90.6108 8.04978 90.5067 8.24611C90.3448 8.44245 90.1945 8.62723 90.0326 8.82357C89.7782 9.1123 89.5238 9.35483 89.2116 9.58582C89.1075 9.65511 89.0035 9.72441 88.8994 9.80525C88.8878 9.8168 88.8647 9.8168 88.8531 9.82835C88.5525 10.0362 88.2287 10.1864 87.905 10.325C88.3444 9.75905 88.7028 9.1354 88.9688 8.454C88.9919 8.39625 89.015 8.32695 89.0382 8.25766C89.1885 7.81879 89.281 7.37992 89.3504 6.91796C89.3851 6.67542 89.3966 6.44444 89.3966 6.19036C89.3966 5.76304 89.3504 5.37037 89.2926 4.9315C89.281 4.89685 89.3041 4.87375 89.2926 4.8391C89.2463 4.41178 89.2463 4.01911 89.3041 3.59179C89.3041 3.58024 89.2926 3.55715 89.2926 3.5456C89.3041 3.39546 89.3272 3.26842 89.3619 3.11828C89.3851 3.01433 89.4082 2.92194 89.4198 2.82955C89.4313 2.80645 89.4313 2.80645 89.4429 2.78335C89.5238 2.40223 89.6395 2.05575 89.7898 1.70928C89.2232 2.8411 88.9803 4.1346 89.1191 5.38192C89.1191 5.67064 89.1307 5.94782 89.096 6.2481C89.096 6.25965 89.1075 6.28275 89.1075 6.2943C89.0613 6.67542 89.015 7.01035 88.911 7.37992C88.7722 7.89964 88.5641 8.3616 88.3212 8.83512C88.3097 8.85822 88.275 8.89286 88.2634 8.91596C88.0206 9.37793 87.7084 9.7706 87.373 10.1517C87.3383 10.0362 87.3499 9.93229 87.3268 9.80525C87.3037 9.70131 87.2921 9.59736 87.2921 9.48187C87.2921 9.40103 87.2805 9.32018 87.269 9.23934C87.1996 8.48864 87.1533 7.80724 87.1186 7.06809C87.0955 6.43289 87.0724 5.85543 87.0955 5.23178C87.0955 5.20868 87.1071 5.17403 87.1071 5.15093C87.1302 4.57347 87.2227 4.04221 87.3962 3.48785C87.5927 2.87574 87.8818 2.35603 88.2634 1.84787C88.275 1.83632 88.2865 1.82477 88.3097 1.80167C88.5294 1.50139 88.7953 1.23576 89.0844 0.993229Z" fill="#F9EC31"/>
<path d="M79.5328 18.1899C79.0703 18.4902 78.6077 18.8021 78.1452 19.1139C77.2317 19.7375 76.3182 20.3727 75.4163 21.031C73.6124 22.3361 71.8547 23.6989 70.1202 25.1079C66.6628 27.9375 63.3325 30.9633 60.2104 34.2433C58.6494 35.8833 57.1346 37.581 55.6776 39.3596C54.2322 41.1382 52.833 42.9745 51.5263 44.9032C51.006 45.6654 50.5088 46.4392 50.0231 47.2246C49.4449 46.3006 48.8436 45.4114 48.2192 44.5221C46.8894 42.628 45.4671 40.8032 43.9986 39.0593C42.5185 37.3154 40.9805 35.6408 39.3964 34.0239C36.2164 30.8016 32.8515 27.822 29.3478 25.0502C27.5902 23.6643 25.8094 22.3361 23.994 21.0657C23.0804 20.4305 22.1669 19.8068 21.2419 19.1947C20.7793 18.8944 20.3168 18.5942 19.8427 18.2939C19.3686 18.0052 18.9061 17.7049 18.4204 17.4277C18.8367 17.7973 19.2414 18.1669 19.6346 18.548C20.0393 18.9291 20.4324 19.3102 20.8256 19.6913C21.6119 20.4651 22.3751 21.2389 23.1383 22.0358C24.6531 23.6181 26.1216 25.2465 27.5323 26.898C30.3538 30.2126 32.9671 33.6658 35.3145 37.2461C37.6503 40.8263 39.7201 44.5221 41.3853 48.3217C41.6281 48.8877 41.7206 56.487 44.9468 63.636C51.6535 78.5228 53.9778 67.7013 51.1794 67.7475C47.2594 67.8168 50.7978 78.7654 55.8857 62.9315C59.2391 52.5141 58.5222 49.3034 58.765 48.726C60.3261 44.9032 62.3034 41.1497 64.5583 37.5233C66.8131 33.8968 69.3455 30.3743 72.086 27.002C73.462 25.3158 74.8843 23.6527 76.3529 22.0358C77.0929 21.2274 77.8446 20.4305 78.6077 19.6336C78.9893 19.2409 79.3825 18.8483 79.7641 18.4671C80.1572 18.086 80.5504 17.6933 80.9551 17.3238C80.4694 17.5894 80.0069 17.8897 79.5328 18.1899Z" fill="#231F20"/>
<path d="M56.3251 34.8092C56.3251 38.2509 53.4921 41.0342 50 41.0342C46.5078 41.0342 43.6748 38.2509 43.6748 34.8092C43.6748 31.3676 46.5078 28.5842 50 28.5842C53.4921 28.5842 56.3251 31.3676 56.3251 34.8092Z" fill="#231F20"/>
<path d="M19.3569 94.5069L19.4494 94.1489L19.9467 94.1258H21.3458L21.2533 94.5184H19.3569V94.5069ZM20.2704 92.1393H21.1146C22.2593 92.1393 22.8606 92.7861 22.8606 93.9294C22.8606 95.5925 22.0049 96.7243 20.5595 96.7243H19.4263L20.2704 92.1393ZM20.5711 96.2739C21.6696 96.2739 22.3518 95.3731 22.3518 93.9641C22.3518 93.0979 21.9124 92.5897 21.0914 92.5897H20.6867L20.016 96.2739H20.5711Z" fill="#231F20"/>
<path d="M23.3809 95.5117C23.3809 94.299 24.144 93.248 25.0922 93.248C25.5316 93.248 25.867 93.4559 26.0404 93.7562H26.0636L26.1908 93.3289H26.5955L25.9711 96.7128H25.5663L25.6126 96.1931H25.5895C25.2657 96.5511 24.8494 96.7936 24.4447 96.7936C23.7971 96.8052 23.3809 96.3548 23.3809 95.5117ZM25.6588 95.6965L25.9479 94.1951C25.7398 93.837 25.4391 93.6984 25.1501 93.6984C24.4331 93.6984 23.8781 94.5184 23.8781 95.4193C23.8781 96.0545 24.1556 96.3432 24.595 96.3432C24.9419 96.3548 25.3235 96.1238 25.6588 95.6965ZM24.0515 97.9832C24.0515 97.7291 24.2597 97.4981 24.4909 97.4981C24.7106 97.4981 24.861 97.6367 24.861 97.8793C24.861 98.1564 24.6528 98.3643 24.41 98.3643C24.2134 98.3643 24.0515 98.2373 24.0515 97.9832ZM24.595 91.6889L24.9304 91.6311C24.9072 91.9892 25.0691 92.3472 25.4854 92.3472C25.9017 92.3472 26.1561 91.9892 26.2717 91.6311L26.5955 91.6889C26.4798 92.2086 26.1098 92.7399 25.416 92.7399C24.7338 92.7399 24.5488 92.1971 24.595 91.6889Z" fill="#231F20"/>
<path d="M27.3242 95.3153C27.3242 94.0796 28.2262 93.248 29.1975 93.248C29.741 93.248 30.1457 93.5367 30.3654 93.8601L30.0416 94.1719C29.8219 93.8601 29.5328 93.71 29.1281 93.71C28.4921 93.71 27.8099 94.3914 27.8099 95.2576C27.8099 95.9967 28.2377 96.3547 28.8159 96.3547C29.1859 96.3547 29.5213 96.17 29.8103 95.8928L30.0069 96.2623C29.6831 96.5857 29.2206 96.8167 28.7465 96.8167C27.9486 96.8052 27.3242 96.297 27.3242 95.3153Z" fill="#231F20"/>
<path d="M35.6035 95.8351C35.6035 95.6849 35.6267 95.5579 35.6498 95.3962L35.962 93.7678H35.0601L35.1294 93.3751L36.0661 93.3404L36.332 92.2548H36.7367L36.5286 93.3404H38.0665L37.9856 93.7678H36.4477L36.1355 95.4077C36.1123 95.5348 36.1008 95.6272 36.1008 95.7196C36.1008 96.1469 36.3205 96.3548 36.6789 96.3548C36.9911 96.3548 37.2571 96.2508 37.4884 96.1122L37.6503 96.5049C37.3843 96.6897 36.9911 96.8167 36.5517 96.8167C35.9042 96.8052 35.6035 96.4125 35.6035 95.8351Z" fill="#231F20"/>
<path d="M39.6737 93.3289L40.0785 93.3404L39.9397 94.3106H39.9628C40.3213 93.7331 40.8185 93.2596 41.362 93.2596C41.6279 93.2596 41.8477 93.3173 41.9864 93.4328L41.7898 93.8948C41.6279 93.7908 41.4776 93.7446 41.2695 93.7446C40.7838 93.7446 40.2866 94.2413 39.8703 94.9689L39.5465 96.7243H39.0493L39.6737 93.3289Z" fill="#231F20"/>
<path d="M43.6632 95.9505C43.6632 95.835 43.6863 95.708 43.7095 95.5694L44.0911 93.7562H42.9463L43.0272 93.3289H44.6577L44.1951 95.6272C44.172 95.708 44.172 95.7773 44.172 95.8466C44.172 96.2046 44.3686 96.3432 44.6461 96.3432C44.8427 96.3432 45.0161 96.2739 45.2474 96.17L45.363 96.5742C45.0971 96.7012 44.8542 96.7936 44.5073 96.7936C44.0101 96.8052 43.6632 96.5049 43.6632 95.9505ZM43.8251 97.9832C43.8251 97.7291 44.0332 97.4981 44.2645 97.4981C44.4842 97.4981 44.6345 97.6367 44.6345 97.8792C44.6345 98.1564 44.4264 98.3643 44.1836 98.3643C43.987 98.3643 43.8251 98.2373 43.8251 97.9832ZM44.1142 92.2317C44.1142 91.9776 44.3223 91.7466 44.5536 91.7466C44.7733 91.7466 44.9236 91.8852 44.9236 92.1277C44.9236 92.4049 44.7155 92.6128 44.4727 92.6128C44.2761 92.6128 44.1142 92.4742 44.1142 92.2317Z" fill="#231F20"/>
<path d="M51.1214 91.7582H51.6186L51.2832 93.5829L51.1792 94.0103H51.2023C51.5839 93.5945 52.0349 93.248 52.5783 93.248C53.1334 93.248 53.3762 93.5829 53.3762 94.0911C53.3762 94.2874 53.3531 94.4607 53.3184 94.6455L52.9368 96.7128H52.4396L52.8096 94.7032C52.8443 94.53 52.8674 94.3798 52.8674 94.2297C52.8674 93.8948 52.694 93.71 52.3702 93.71C51.9539 93.71 51.5261 94.0103 51.0982 94.53L50.6935 96.7243H50.1963L51.1214 91.7582Z" fill="#231F20"/>
<path d="M54.1162 95.3153C54.1162 94.1258 54.9603 93.248 55.9085 93.248C56.718 93.248 57.2152 93.8601 57.2152 94.7379C57.2152 95.9274 56.3711 96.8052 55.4229 96.8052C54.6019 96.8052 54.1162 96.1931 54.1162 95.3153ZM56.718 94.7725C56.718 94.1142 56.4058 93.71 55.8738 93.71C55.2147 93.71 54.6134 94.4145 54.6134 95.2922C54.6134 95.9505 54.9256 96.3548 55.4576 96.3548C56.1167 96.3548 56.718 95.6502 56.718 94.7725ZM55.1107 92.5204L56.001 91.5618H56.533L57.0996 92.5435L56.8452 92.763L56.2439 91.9545H56.2207L55.3072 92.763L55.1107 92.5204Z" fill="#231F20"/>
<path d="M59.0538 95.9505C59.0538 95.835 59.077 95.708 59.1001 95.5694L59.4817 93.7562H58.3369L58.4179 93.3289H60.0483L59.5858 95.6272C59.5626 95.708 59.5626 95.7773 59.5626 95.8466C59.5626 96.2046 59.7592 96.3432 60.0367 96.3432C60.2333 96.3432 60.4068 96.2739 60.638 96.17L60.7537 96.5742C60.4877 96.7012 60.2449 96.7936 59.898 96.7936C59.4007 96.8052 59.0538 96.5049 59.0538 95.9505ZM59.5048 92.2317C59.5048 91.9776 59.713 91.7466 59.9442 91.7466C60.1639 91.7466 60.3142 91.8852 60.3142 92.1277C60.3142 92.4049 60.1061 92.6128 59.8633 92.6128C59.6551 92.6128 59.5048 92.4742 59.5048 92.2317Z" fill="#231F20"/>
<path d="M66.2118 93.3289H66.6165L66.5356 94.0218H66.5587C66.9403 93.6176 67.4029 93.248 67.9579 93.248C68.5129 93.248 68.7558 93.5829 68.7558 94.0911C68.7558 94.2874 68.7326 94.4607 68.6979 94.6455L68.3164 96.7128H67.8191L68.2007 94.7032C68.2354 94.53 68.2585 94.3798 68.2585 94.2297C68.2585 93.8948 68.0851 93.71 67.7613 93.71C67.345 93.71 66.9172 94.0103 66.4893 94.53L66.0846 96.7243H65.5874L66.2118 93.3289Z" fill="#231F20"/>
<path d="M69.5537 95.5117C69.5537 94.299 70.3169 93.248 71.2651 93.248C71.7045 93.248 72.0398 93.4559 72.2133 93.7562H72.2364L72.3636 93.3289H72.7683L72.1439 96.7128H71.7392L71.7854 96.1931H71.7623C71.4385 96.5511 71.0223 96.7936 70.6175 96.7936C69.97 96.8052 69.5537 96.3548 69.5537 95.5117ZM71.8317 95.6965L72.1208 94.1951C71.9126 93.837 71.612 93.6984 71.3229 93.6984C70.606 93.6984 70.0509 94.5184 70.0509 95.4193C70.0509 96.0545 70.3285 96.3432 70.7679 96.3432C71.1032 96.3548 71.4964 96.1238 71.8317 95.6965ZM71.1957 92.3703L72.2711 91.3078L72.5833 91.7235L71.427 92.6821L71.1957 92.3703Z" fill="#231F20"/>
<path d="M73.4966 95.3153C73.4966 94.0796 74.3985 93.248 75.3698 93.248C75.9133 93.248 76.318 93.5367 76.5377 93.8601L76.214 94.1719C75.9943 93.8601 75.7052 93.71 75.3005 93.71C74.6645 93.71 73.9822 94.3914 73.9822 95.2576C73.9822 95.9967 74.4101 96.3547 74.9883 96.3547C75.3583 96.3547 75.6936 96.17 75.9827 95.8928L76.1793 96.2623C75.8555 96.5857 75.393 96.8167 74.9189 96.8167C74.1094 96.8052 73.4966 96.297 73.4966 95.3153Z" fill="#231F20"/>
<path d="M78.0525 91.7582H78.5497L78.2144 93.5829L78.1103 94.0103H78.1335C78.515 93.5945 78.966 93.248 79.5095 93.248C80.0645 93.248 80.3074 93.5829 80.3074 94.0911C80.3074 94.2874 80.2842 94.4607 80.2496 94.6455L79.868 96.7128H79.3707L79.7408 94.7032C79.7755 94.53 79.7986 94.3798 79.7986 94.2297C79.7986 93.8948 79.6251 93.71 79.3014 93.71C78.8851 93.71 78.4572 94.0103 78.0294 94.53L77.6247 96.7243H77.1274L78.0525 91.7582Z" fill="#231F20"/>
</svg>
